# xmcd
#
# Track frame offsets: 
#        150
#        20550
#        41925
#        62121
#        81457
#        99074
#        119055
#        144903
#        158381
#        178648
#        200362
#        218282
#        236974
#        254680
#
# Disc length: 3719 seconds
#
# Revision: 1
# Processed by: cddbd v1.5.2PL0 Copyright (c) Steve Scherf et al.
# Submitted via: ExactAudioCopyFreeDBPlugin 1.0
#
DISCID=c20e850e
DTITLE=Johnny Drummer - Unleaded Blues
DYEAR=2000
DGENRE=Blues
TTITLE0=I'm Gonna Sell My Cadillac, Buy Myself A Mule
TTITLE1=Born In The Delta
TTITLE2=I'm Missing You
TTITLE3=Stop Cheating
TTITLE4=How Many Times
TTITLE5=Put Your Suitcase Down
TTITLE6=Anything But Without You
TTITLE7=I Feel So Good
TTITLE8=You Got Trouble
TTITLE9=Serious
TTITLE10=Unleaded Blues
TTITLE11=Fall Out Of Love
TTITLE12=Take Care Of Your Homework
TTITLE13=Somebody Please Give Me A Job
EXTD=
EXTT0=I'm Gonna Sell My Cadillac, Buy Myself A Mule
EXTT1=Born In The Delta
EXTT2=I'm Missing You
EXTT3=Stop Cheating
EXTT4=How Many Times
EXTT5=Put Your Suitcase Down
EXTT6=Anything But Without You
EXTT7=I Feel So Good
EXTT8=You Got Trouble
EXTT9=Serious
EXTT10=Unleaded Blues
EXTT11=Fall Out Of Love
EXTT12=Take Care Of Your Homework
EXTT13=Somebody Please Give Me A Job
PLAYORDER=
